<svg xmlns="http://www.w3.org/2000/svg" width="279" height="24" viewBox="0 0 279 24">
  <path fill="#FFF" d="M143.388314,2.21763201 L143.388314,6.77817767 L146.965082,6.77817767 L146.965082,9.24074508 L143.388314,9.24074508 L143.388314,18.8331107 C143.388314,20.8655119 143.87369,21.1933974 145.034588,21.1933974 C145.611535,21.1933974 146.178974,21.1439699 146.820971,21.0392423 L147.060656,21.0005811 L147.060656,23.6833702 L146.895528,23.71518 C146.351107,23.8213758 145.303296,24 144.396094,24 C141.323717,24 140.071247,22.602816 140.071247,19.1771459 L140.071247,9.24074508 L137.357647,9.24074508 L137.357647,6.77817767 L140.071247,6.77817767 L140.071247,2.21763201 L143.388314,2.21763201 Z M39.7457581,0.000831948452 L39.7457581,15.7104656 C39.7457581,21.5018056 37.1032131,23.9996085 30.9964873,23.9996085 C24.8902619,23.9996085 22.3187719,21.4675489 22.3187719,15.537714 L22.3187719,14.7742789 L28.5686085,14.7742789 L28.5686085,15.537714 C28.5686085,17.826551 29.2466332,18.7632271 30.8889041,18.7632271 C32.5677032,18.7632271 33.1741726,17.7913155 33.1741726,15.4677324 L33.1741726,0.000831948452 L39.7457581,0.000831948452 Z M270.562181,6.40277316 C275.862783,6.40277316 279.182852,10.4318506 278.992204,16.3656006 L266.313893,16.3656006 C266.538066,19.2397378 268.581648,20.6447519 270.657254,20.6447519 C271.998292,20.6447519 273.371855,20.1764139 274.266547,18.7087589 L278.800556,18.7087589 C277.87484,21.2065618 275.351887,23.9862484 270.689279,23.9862484 C265.164503,23.9862484 261.939007,19.9576603 261.939007,15.1171885 C261.939007,10.1191358 265.483751,6.40277316 270.562181,6.40277316 Z M109.86272,6.49653865 C113.981907,6.49653865 117.654249,9.12011256 117.654249,15.2412956 C117.654249,21.3624787 113.981907,23.986542 109.86272,23.986542 C105.743032,23.986542 102.102714,21.3624787 102.102714,15.2412956 C102.102714,9.12011256 105.743032,6.49653865 109.86272,6.49653865 Z M208.332373,6.77749253 L208.332373,16.4599044 C208.332373,18.7081227 208.65212,20.5198128 211.142547,20.5198128 C214.048796,20.5198128 214.719816,18.1771438 214.719816,15.5227389 L214.719816,6.77749253 L219.125225,6.77749253 L219.125225,23.5804044 L214.719816,23.5804044 L214.719816,21.363017 C213.73005,23.0494255 211.813567,23.9865909 209.705936,23.9865909 C205.586248,23.9865909 203.924962,21.5186403 203.924962,17.3965804 L203.924962,6.77749253 L208.332373,6.77749253 Z M238.858896,6.77749253 L238.858896,16.4599044 C238.858896,18.7081227 239.178644,20.5198128 241.669071,20.5198128 C244.57532,20.5198128 245.246339,18.1771438 245.246339,15.5227389 L245.246339,6.77749253 L249.652249,6.77749253 L249.652249,23.5804044 L245.246339,23.5804044 L245.246339,21.363017 C244.256573,23.0494255 242.34009,23.9865909 240.232459,23.9865909 C236.112771,23.9865909 234.451486,21.5186403 234.451486,17.3965804 L234.451486,6.77749253 L238.858896,6.77749253 Z M173.7364,6.46507142 C179.037502,6.46507142 182.134899,10.712413 181.783127,16.1783143 L168.690995,16.1783143 C169.009242,19.2702262 171.021299,21.2067086 173.704875,21.2067086 C176.099228,21.2067086 177.504316,20.2387121 178.206859,18.6457755 L181.559954,18.6457755 C180.761336,21.4254621 178.206859,23.9859058 173.831974,23.9859058 C168.275173,23.9859058 165.27335,20.020448 165.27335,15.147677 C165.27335,9.93184956 168.850118,6.46507142 173.7364,6.46507142 Z M228.415815,2.21841502 L228.415815,6.77700315 L232.31183,6.77700315 L232.31183,9.74461222 L228.415815,9.74461222 L228.415815,18.3958974 C228.415815,20.1136262 228.831136,20.589305 230.268248,20.5819643 C230.902739,20.579028 231.530725,20.5203022 232.237772,20.4048082 L232.515988,20.3592957 L232.515988,23.6151504 L232.323839,23.6528328 C231.702358,23.7746888 230.517941,23.9880591 229.476135,23.9851528 C225.525078,23.9758246 224.009405,22.2130726 224.009405,18.6141615 L224.009405,9.74461222 L221.262779,9.74461222 L221.262779,6.77700315 L224.009405,6.77700315 L224.009405,2.21841502 L228.415815,2.21841502 Z M54.4226162,0.000831948452 L62.06453,23.5831449 L55.1726966,23.5831449 L53.9947851,19.3871884 L47.4947549,19.3871884 L46.3168433,23.5831449 L39.7457581,23.5831449 L47.387672,0.000831948452 L54.4226162,0.000831948452 Z M70.8022919,0.000831948452 L74.054809,5.95415719 L77.4099054,0.000831948452 L84.2662113,0.000831948452 L77.5244941,11.5815544 L84.4798766,23.5831449 L76.945546,23.5831449 L73.4878702,17.2740393 L69.9101015,23.5831449 L63.0537956,23.5831449 L69.99867,11.5766606 L63.2684617,0.000831948452 L70.8022919,0.000831948452 Z M14.6763576,0.000831948452 L22.3187719,23.5831449 L15.4264381,23.5831449 L14.2485265,19.3871884 L7.74999751,19.3871884 L6.57158557,23.5831449 L-1.42108547e-14,23.5831449 L7.64191387,0.000831948452 L14.6763576,0.000831948452 Z M152.422405,0.937361214 L152.422405,9.21378017 C153.412672,7.55869213 155.137006,6.46541399 157.819082,6.46541399 C161.971295,6.46541399 163.568031,9.08849852 163.568031,12.9927837 L163.568031,23.5810405 L160.24646,23.5810405 L160.24646,13.8673083 C160.24646,11.4306781 159.831139,9.18294913 156.701217,9.18294913 C153.827493,9.18294913 152.422405,11.212414 152.422405,14.5539105 L152.422405,23.5810405 L149.100835,23.5810405 L149.100835,0.937361214 L152.422405,0.937361214 Z M127.091853,6.48161251 C127.251476,6.48161251 127.474649,6.48161251 127.665797,6.51391169 L127.665797,8.57420756 C127.34705,8.54337653 127.058827,8.54337653 126.772606,8.54337653 C123.227863,8.54337653 122.077472,11.0416688 122.077472,14.6019188 L122.077472,23.5806001 L120.130466,23.5806001 L120.130466,6.77768828 L122.012922,6.77768828 L122.012922,9.6674857 C122.780516,7.7001723 125.015246,6.48161251 127.091853,6.48161251 Z M256.131413,6.77744359 L256.131413,9.71324287 C257.121179,7.65245761 258.685389,6.80876401 260.665922,6.80876401 C260.953645,6.80876401 261.336941,6.8405738 261.623663,6.87140483 L261.623663,10.9313133 C260.984669,10.8681831 260.442249,10.8378414 259.804255,10.8378414 C257.632074,10.8378414 256.195463,11.6184048 256.195463,14.7729576 L256.195463,23.5803554 L251.788052,23.5803554 L251.788052,6.77744359 L256.131413,6.77744359 Z M199.58095,3.37507799e-14 C200.539192,3.37507799e-14 201.082112,0.0626408246 202.135427,0.156602062 L202.135427,3.6233802 C201.401359,3.52941896 200.66679,3.49858793 200.154894,3.49858793 C199.069554,3.49858793 198.335987,3.84164432 198.335987,5.5906936 L198.335987,6.77695421 L201.784155,6.77695421 L201.784155,9.74505266 L198.335987,9.74505266 L198.335987,23.5803554 L193.928576,23.5803554 L193.928576,9.74505266 L191.500697,9.74505266 L191.500697,6.77695421 L193.928576,6.77695421 L193.928576,5.37242947 C193.928576,1.71821824 195.812534,3.37507799e-14 199.58095,3.37507799e-14 Z M100.225762,0.976854297 C100.709136,0.976854297 101.47723,1.04438894 102.009142,1.17505378 L102.292862,1.24405656 L102.292862,3.13992027 L101.815993,3.00631914 C101.419185,2.89571893 100.720645,2.8017577 100.290312,2.8017577 C99.0723694,2.8017577 98.4924206,3.09293965 98.4924206,4.74753831 L98.4924206,6.77700315 L102.037164,6.77700315 L102.037164,8.47319923 L98.4924206,8.47319923 L98.4924206,23.5804044 L96.4988778,23.5804044 L96.4988778,8.47319923 L93.9759254,8.47319923 L93.9759254,6.77700315 L96.4988778,6.77700315 L96.4988778,4.8718412 C96.4988778,2.2874178 97.7523478,0.976854297 100.225762,0.976854297 Z M109.86272,8.27690833 C106.573174,8.27690833 104.209845,10.4316548 104.209845,15.2412956 C104.209845,20.0509365 106.573174,22.2061723 109.86272,22.2061723 C113.151765,22.2061723 115.546618,20.0509365 115.546618,15.2412956 C115.546618,10.4316548 113.151765,8.27690833 109.86272,8.27690833 Z M50.74477,6.7978508 L48.7807501,14.4620536 L52.7082895,14.4620536 L50.74477,6.7978508 Z M10.9985114,6.7978508 L9.03499193,14.4620536 L12.9630317,14.4620536 L10.9985114,6.7978508 Z M173.704875,9.11996574 C171.117373,9.11996574 169.20139,10.4319974 168.754544,13.6173812 L178.334958,13.6173812 C178.238884,11.1190889 176.4505,9.11996574 173.704875,9.11996574 Z M270.529155,9.55732594 C268.86887,9.55732594 266.729214,10.5879633 266.377442,13.3984809 L274.521244,13.3984809 C274.42567,10.5561535 272.381589,9.55732594 270.529155,9.55732594 Z"/>
</svg>
