<svg xmlns:xlink="http://www.w3.org/1999/xlink" xmlns="http://www.w3.org/2000/svg" width="49" height="64"><path fill="#FFF" d="M1.34 39.866c0 13.173 10.559 23.89 23.54 23.89 1.206 0 2.415-.093 3.6-.277l.592-.1.033.189a23.387 23.387 0 01-4.225.381c-12.955 0-23.517-10.588-23.727-23.685l-.003-.398h.19zm29.386 20.976l1.31 2.012-.415.116-.296-.489-.748.212-.01.576-.402.113.125-2.415.436-.125zM2.736 39.866c0 12.392 9.932 22.475 22.143 22.475 1.136 0 2.275-.088 3.392-.262l.557-.095.155.879c-1.346.246-2.727.37-4.104.37-12.567 0-22.817-10.273-23.02-22.981l-.003-.386h.88zM34.57 59.323l.92 2.092-.377.172-.77-1.746-.007.003.203 2.004-.296.135-1.315-1.5-.005.003.77 1.746-.378.171-.92-2.093.618-.283 1.159 1.35.005-.003-.212-1.779.605-.272zm-3.973 1.918l-.007.002-.018 1.116.58-.164-.555-.954zM3.474 39.866c0 11.98 9.603 21.724 21.406 21.724a21.33 21.33 0 003.276-.252l.538-.091.034.19c-1.262.23-2.556.347-3.848.347-11.789 0-21.402-9.637-21.593-21.556l-.003-.362h.19zm33.183 18.231l.168.308c-.104.02-.246.042-.408.148-.178.11-.208.264-.125.396.091.147.222.14.365.131l.28-.013c.304-.018.487.037.655.309.247.395.087.76-.276.994-.192.123-.356.19-.491.191l-.175-.328a.908.908 0 00.478-.14c.152-.1.238-.273.116-.466-.087-.138-.205-.149-.434-.134l-.24.013c-.257.016-.472-.058-.627-.308-.216-.347-.049-.708.273-.914.202-.13.377-.168.441-.187zm2.441-9.005c.985.279 2.137.683 2.185.702a.38.38 0 01.23.48.373.373 0 01-.475.231 42.751 42.751 0 00-2.138-.686c-.94-.266-1.444-.272-1.677-.027a.468.468 0 00-.03.203c0 .293.1.958.625 2.445.115.33.181.703.181 1.048 0 .52-.151.987-.52 1.188-.52.284-1.226-.041-1.7-.532l-.092-.1-.132-.137c-.716-.73-1.01-.884-1.117-.918-.145.195-.437.916-.66 1.91-.272 1.21-.606 2.393-1.412 2.434a.604.604 0 01-.452-.184c-.406-.41-.468-1.642-.468-2.394 0-.247.007-.442.01-.54.004-.049.004-.1.004-.155 0-.595-.123-1.49-.245-1.805-.213.078-.643.373-.894.65-.125.142-1.275 1.43-2.134 3.062-.798 1.512-1.505 3.486-1.511 3.505a.37.37 0 01-.477.227.38.38 0 01-.223-.484c.03-.083.73-2.042 1.555-3.604a16.954 16.954 0 012.244-3.215c.01-.013 1.071-1.126 1.742-.879.612.226.679 2.025.684 2.575v.12l-.001.037a9.117 9.117 0 00-.012.469c0 .8.09 1.568.21 1.826.12-.093.347-.453.654-1.812.187-.829.577-2.247 1.101-2.46.436-.178.962.118 1.913 1.086l.162.168.011.015c.326.376.757.542.887.472.097-.053.245-.591-.012-1.321-.711-2.025-.835-2.98-.442-3.41.563-.609 1.497-.451 2.426-.19zm-21.81 5.375l.075.013c.04.01 1.04.29 1.764 1.08.42.46.77 1.263.883 1.786.09.412.143 1.19.145 1.222a.376.376 0 01-.345.404.374.374 0 01-.396-.352c-.002-.009-.052-.755-.13-1.109-.09-.424-.387-1.091-.702-1.437-.574-.628-1.405-.863-1.412-.865a.377.377 0 01-.261-.463.374.374 0 01.306-.276l.073-.003zm21.36 2.05l.203.263-.393.317 1.202 1.533-.322.262-1.202-1.533-.396.32-.207-.262 1.115-.9zm1.633-1.573l.23.238-.545.553.42.434.52-.523.232.24-.518.521.47.482.571-.577.233.24-.866.87-1.592-1.628.845-.85zm2.109-1.59c.2.164.256.393.181.598l-.04.086c.059-.045.133-.088.285-.05l.083.025.855.313-.273.35-.713-.29c-.147-.058-.248-.036-.333.044l-.05.055-.058.073.758.617-.258.329-1.764-1.436.442-.559c.25-.317.562-.417.885-.154zm-.666.397l-.049.057-.106.135.521.422.105-.133c.138-.175.14-.364-.037-.51-.18-.146-.306-.11-.434.03zm2.717-2.58c.604.378.712.915.455 1.427l-.06.11-.31.507-1.923-1.202.31-.51c.369-.61.893-.73 1.528-.332zm-33.142-1.834c1.3.295 3.053.909 4.025 1.3l.196.081.149.06c2.573 1.08 3.412 1.269 3.686 1.265-.003-.087-.086-.281-.534-.7a.383.383 0 01-.022-.534.37.37 0 01.526-.02c.29.272 1.173 1.098.578 1.801-.322.381-1.048.326-4.239-.997l-.28-.116-.148-.06c-.89-.375-2.75-1.037-4.099-1.344-1.263-.289-2.55-.161-2.563-.159a.374.374 0 01-.408-.336.377.377 0 01.331-.415c.058-.006 1.417-.14 2.802.174zm31.929 2.273l-.064.093-.074.12 1.385.865.072-.12c.244-.403.086-.754-.336-1.017-.387-.241-.739-.252-.983.06zm-18.89-5.03c.192.02.334.185.334.376l-.001.037c-.004.038-.095.908-.5 1.789-.226.494-.743 1.445-1.14 2.162.352-.133.724-.27.977-.348l.116-.034 1.978-.5c.201-.038.344.077.393.28.046.176-.005.349-.15.425l-.068.027-1.965.499c-.49.131-1.967.729-1.981.734a.37.37 0 01-.42-.102.387.387 0 01-.04-.436l.028-.048c.186-.33 1.26-2.236 1.6-2.979.35-.76.432-1.537.433-1.545a.372.372 0 01.406-.337zm9.365 1.024l.09.004c.205.011.36.189.35.396a.379.379 0 01-.394.356c-.104-.006-1.029-.03-1.202.811-.057.283-.025.506.1.683.201.292.624.42.844.45.33.045.968-.162 1.072-.289.114-.166.262-.585.331-.81a.371.371 0 01.462-.25.385.385 0 01.25.471c-.023.072-.216.705-.435 1.024-.303.44-1.289.667-1.778.602-.439-.061-1.027-.29-1.353-.76-.248-.354-.321-.784-.22-1.274.221-1.079 1.179-1.387 1.785-1.412l.098-.002zm10.66 1.138l2.359.283-.178.394-.56-.084-.322.717.425.38-.172.382-1.742-1.654.19-.418zm.217.356l-.003.007.83.733.25-.556-1.077-.184zM14.393 31.606c.68 0 1.84.2 3.496 1.159 1.532.891 5.38 3.501 7.549 5.286 2.233 1.835 4.227 3.59 5.201 4.581 1.253 1.271 1.902 1.964 1.83 2.588-.067.589-.476.766-.867.896l-.097.031-.238.082c-.512.181-.628.349-.628.393 0 .054.044.226.072.35.114.445.24.952-.002 1.31-.35.526-.975.508-1.39.495-.126-.003-.282-.007-.338.01-.063.02-.175.086-.284.148-.372.212-.998.567-1.51.146-.375-.31-.476-.76-.476-1.168 0-.27.044-.52.08-.694l.02-.095.151-.614a6.98 6.98 0 00.12-.511 7.376 7.376 0 00-.394-.153c-.565-.21-.919-.353-1.09-.572-.222-.285-.286-.686-.286-1.044 0-.11.006-.213.016-.308.03-.326.18-.982.2-1.056a.373.373 0 01.448-.279.377.377 0 01.272.456c-.041.187-.162.717-.183.946-.006.08-.01.16-.01.235 0 .26.047.471.122.574.095.09.532.252.766.34.523.192.738.279.837.482.041.08.058.17.058.272 0 .17-.046.376-.114.643l-.044.167-.143.582a3.266 3.266 0 00-.082.643c0 .273.066.458.2.57.119.097.456-.095.678-.22.15-.084.293-.167.431-.21.174-.054.369-.048.574-.043.369.01.636.003.758-.169a.31.31 0 00.011-.082c0-.162-.076-.459-.115-.617-.05-.207-.098-.385-.098-.534 0-.434.324-.785.96-1.044l.165-.063.264-.088c.433-.14.436-.167.447-.294.002-.004.002-.01.002-.015 0-.309-.972-1.295-1.62-1.952-.957-.974-2.929-2.71-5.14-4.53-2.145-1.762-5.94-4.34-7.452-5.215-1.512-.877-2.536-1.062-3.127-1.062a.353.353 0 00-.143.02c0 .01-.004.016-.004.03 0 .066.022.187.1.36.072.159.489.522.833.764a.379.379 0 01.093.524.365.365 0 01-.515.096c-.206-.143-.893-.647-1.085-1.067-.144-.318-.269-.77-.047-1.12.104-.165.322-.36.768-.36zm6.259 4.666l.956.725 1.899 1.403a.382.382 0 01.123.452 14.89 14.89 0 00-.34.872c-.14.331-.03.525.18.669.198.133.38.248.38.248.216.146.259.407.259.76l-.002.165-.005.18-.005.491c.012.211.062.526.108.805.057.358.087.546.087.674 0 .041 0 .076-.008.107-.025.148-.111.274-.412.683-.242.333-.558.766-.781 1.173l-.122.24-.277.637c-.269.624-.444 1.038-.746 1.223-.204.124-.612.215-1.248.336l-.22.042-.694.139c-.333.076-.81.274-1.19.433-.313.131-.494.206-.617.233-.226.05-.504-.035-1.019-.204a7.021 7.021 0 00-.825-.237c-.759-.14-.914-.54-.914-.98 0-.055.002-.11.008-.166-.001-.004-.023-.213-.685-.662-.11-.075-1.1-.767-1.176-1.67a1.35 1.35 0 01-.005-.11c0-.567.374-1.05.694-1.422l.093-.109.2-.235a.142.142 0 00.028-.086c0-.103-.099-.209-.111-.224a.385.385 0 01-.071-.42.374.374 0 01.283-.217l.075-.003 1.314.084c.205.013.36.192.35.4a.375.375 0 01-.395.352l-.71-.044c.003.028.012.055.012.085 0 .14-.034.286-.118.43l-.073.108-.226.27c-.238.274-.528.608-.589.918l-.012.114v.042c.036.415.542.9.85 1.11.69.468 1.014.878 1.014 1.285v.056c-.007.06-.008.106-.008.145 0 .15.05.16.304.207.293.055.627.165.923.261.216.07.539.178.643.182.078-.023.297-.114.48-.19.325-.137.715-.299 1.06-.405l.25-.068.721-.144c.404-.076 1.082-.202 1.22-.284.093-.065.254-.424.394-.754l.051-.121.288-.654c.249-.541.672-1.122.98-1.544.102-.139.219-.302.271-.383-.01-.106-.044-.333-.073-.51-.036-.223-.077-.467-.1-.682l-.017-.202.002-.564c.003-.093.007-.213.007-.318 0-.078-.025-.219-.114-.26l-.384-.255c-.281-.217-.423-.553-.412-.799.008-.216.081-.429.12-.567.038-.134.161-.447.257-.684-.253-.188-.78-.578-1.333-.985l.134 1.884v.027a.393.393 0 01-.074.228c-.228.304-.62.846-.71 1.011-.24.434-.594.73-1.04.866l-.17.043-1.216.225c-.2.008-.405-.105-.442-.308-.031-.181.107-.36.256-.419l.063-.017 1.194-.22c.31-.065.542-.24.705-.536.117-.216.506-.75.682-.986l-.23-3.375zm25.04 8.52l2.172.637-.114.403-1.81-.53-.003.006 1.639 1.137-.089.316-1.977.05-.002.008 1.812.53-.115.403-2.171-.638.186-.66 1.765-.028.002-.007-1.477-.984.182-.643zM24.88 15.783c13.084 0 23.73 10.802 23.73 24.083 0 1.217-.092 2.436-.27 3.631l-.097.596-.187-.035a24.41 24.41 0 00.362-4.192c0-13.041-10.35-23.677-23.15-23.888l-.388-.004v-.19zm0 .715c12.695 0 23.021 10.483 23.021 23.368 0 1.181-.086 2.364-.26 3.524l-.093.578-.864-.155c.224-1.294.34-2.62.34-3.947 0-12.269-9.737-22.273-21.779-22.472l-.365-.003v-.893zm0 1.45c11.907 0 21.593 9.832 21.593 21.918 0 1.075-.077 2.153-.23 3.211l-.1.632-.186-.033c.216-1.25.327-2.53.327-3.81 0-11.86-9.41-21.53-21.05-21.722l-.354-.003v-.193zm-7.757 15.994a.38.38 0 01-.009.534 6.36 6.36 0 00-.63.706.835.835 0 00.135.05l.082.014.16.008c.547.027 1.535.073 1.644.72l.01.12.008.296c.004.101.01.21.01.32 0 .426-.073.866-.515.949-.234.044-.525-.05-.83-.145-.09-.03-.22-.07-.321-.095-.02.116-.038.279-.053.422-.037.355-.081.798-.2 1.287a2.02 2.02 0 00-.05.46c0 .394.093.766.157.906l.022.04.038.05c.145.196.321.43.321.679a.495.495 0 01-.351.48l-.109.027h.003l-.024.009c-.243.086-.527.128-2.016-.117a.379.379 0 01.121-.746c.95.159 1.325.18 1.498.173l-.076-.102c-.184-.25-.323-.832-.323-1.402 0-.22.02-.44.067-.636.105-.439.148-.852.183-1.187.057-.547.094-.908.397-1.06.246-.126.552-.031.937.09.107.034.262.086.375.11.004-.047.005-.102.005-.16 0-.111-.005-.229-.007-.318l-.01-.27c-.08-.05-.286-.105-.786-.137l-.159-.009-.2-.012c-.453-.045-.937-.337-.937-.792 0-.114 0-.382.909-1.271a.366.366 0 01.524.01zm18.652-9.471c3.586 1.065 5.527 3.81 5.527 7.976 0 5.392-3.29 9.157-8.001 9.157-4.28 0-5.806-3.538-6.708-5.763l-.06-.15-.285-.69c-.21-.479-.493-.78-.866-.924-.767-.292-1.76.173-2.133.349a.37.37 0 01-.493-.184.379.379 0 01.182-.5c.452-.211 1.649-.773 2.705-.369.503.193.903.572 1.19 1.13l.09.191.296.71c.876 2.17 2.202 5.446 6.082 5.446 4.275 0 7.258-3.454 7.258-8.403 0-3.45-1.396-5.788-4.066-6.925-.017.892-.054 2.64-.058 2.908.317.238 1.02.802 1.465 1.461.592.87.726 1.857.733 1.898.003.018.003.035.003.052a.378.378 0 01-.32.374.374.374 0 01-.42-.323c0-.01-.122-.857-.605-1.573-.498-.734-1.432-1.378-1.439-1.384a.385.385 0 01-.158-.246l-.006-.075.087-4.143zM15.093 35.738a.37.37 0 01.19.328.39.39 0 01-.046.184c-.026.048-.642 1.16-.895 1.53-.182.267-.613 1.187-.788 1.632.28.082.789.186 1.222.254a.375.375 0 01.31.295l.007.076-.004.059a.37.37 0 01-.424.314c-1.793-.276-1.93-.514-1.93-.817 0-.355.802-1.957.996-2.241.233-.343.85-1.46.858-1.471.1-.18.326-.247.504-.143zM6.655 31.46l-.453 1.647-1.3.083-.581 2.117 1.063.778-.42 1.527L0 33.902l.506-1.842 6.149-.599zm-2.902 1.79l-2.354.056-.004.016 1.972 1.34.386-1.412zm25.942-7.731l.34.01c1.327.075 1.855.257 2.45.505.565.236 1.379.735 1.413.756a.38.38 0 01.126.517.367.367 0 01-.511.127c-.008-.004-.8-.49-1.312-.701-.482-.202-.905-.375-2.207-.45-1.24-.072-2.275.26-3.224.607-.84.305-1.993.887-3.333 1.68-1.21.717-2.64 1.48-3.48 1.855-.743.332-2.414.938-2.915.933a.373.373 0 01-.368-.382.374.374 0 01.375-.373c.262.004 1.678-.453 2.608-.868.818-.366 2.219-1.113 3.404-1.816.963-.57 2.344-1.333 3.46-1.74.814-.296 1.754-.604 2.843-.654l.331-.006zm-25.372-.931l4.492 3.122c1.014.722 1.433 1.702.66 2.848l-.373.553-1.292.18c.175-.261.35-.807.398-1.091.075-.456.117-.934-.653-1.484l-4.113-2.85.88-1.278zm6.274-6.13l5.179 3.42-1.365 1.001-1.07-.756-1.753 1.288.354 1.28-1.265.93-1.605-6.042 1.525-1.12zm-.067 1.538l-.014.01.72 2.296 1.172-.86-1.878-1.446zm10.784-5.787l-.985 3.102 2.517 2.54-1.78.443-1.588-1.823-.568 2.359-1.695.422 1.092-3.44-2.27-2.292 1.74-.433 1.39 1.64.512-2.113 1.635-.405zM4.416 5.27L6.66 7.496l2.836-1.36-1.392 2.853 2.153 2.317-3.105-.463-1.508 2.795-.525-3.14-3.082-.59L4.815 8.43l-.399-3.16zm40.605-.243l-.399 3.159L47.4 9.665l-3.085.59-.528 3.14-1.503-2.796-3.106.46 2.153-2.315-1.39-2.854 2.837 1.362 2.243-2.225zM24.657.203l1.03 3.009 3.137.064L26.323 5.2l.91 3.05-2.576-1.819L22.08 8.25l.91-3.05-2.5-1.924 3.136-.064 1.03-3.009z"/></svg>