<svg xmlns:xlink="http://www.w3.org/1999/xlink" xmlns="http://www.w3.org/2000/svg" viewBox="0 0 32 32" width="136"  height="136" >
            <mask id="fillMask-b0b4587f-c640-4625-921c-42d69f97717e">
                <circle r="50%" cx="50%" cy="50%" fill="black" stroke="#FFFFFF" stroke-width="99%" stroke-dasharray="50 100"></circle>
            </mask>
            <g transform="rotate(-90 16 16)">
                <path d="M32,16.593A16.047,16.047,0,0,1,16.83,32h-.237ZM30.1,8.533a13.4,13.4,0,0,1,1.66,4.5L13.037,31.763a13.411,13.411,0,0,1-4.5-1.659L30.1,8.533ZM25.837,3.319A14.276,14.276,0,0,1,28.919,6.4L6.4,28.919a14.286,14.286,0,0,1-3.081-3.082L25.837,3.319ZM18.963.237A16.154,16.154,0,0,1,23.23,1.659l.237.237L1.9,23.467a13.406,13.406,0,0,1-1.659-4.5ZM15.407,0,0,15.407A16.047,16.047,0,0,1,15.17,0h.237Z" fill="#EEEEEE"></path>
                <g mask="url(#fillMask-b0b4587f-c640-4625-921c-42d69f97717e)">
                    <circle cx="50%" cy="50%" r="50%" fill="#FFFFFF"></circle>
                    <path d="M16,0A16,16,0,1,1,0,16,16,16,0,0,1,16,0Zm0,4.267A11.733,11.733,0,1,0,27.733,16,11.734,11.734,0,0,0,16,4.267Zm0,2.667A9.067,9.067,0,1,1,6.933,16,9.067,9.067,0,0,1,16,6.933ZM16,11.2A4.8,4.8,0,1,0,20.8,16,4.8,4.8,0,0,0,16,11.2Zm0,2.667A2.133,2.133,0,1,1,13.867,16,2.134,2.134,0,0,1,16,13.867Z" fill="#C2002F"></path>
                </g>
            </g>
        </svg>